<svg width="2475" height="1604" xmlns="http://www.w3.org/2000/svg" xmlns:xlink="http://www.w3.org/1999/xlink" xml:space="preserve" overflow="hidden"><defs><clipPath id="clip0"><path d="M1344.1 746.078 1801.55 665.784 1864.98 1027.14 1407.53 1107.44Z" fill-rule="nonzero" clip-rule="nonzero"/></clipPath><clipPath id="clip1"><path d="M1344.1 746.078 1801.55 665.784 1864.98 1027.14 1407.53 1107.44Z" fill-rule="evenodd" clip-rule="evenodd"/></clipPath><clipPath id="clip2"><path d="M1344.1 746.078 1801.55 665.784 1864.98 1027.14 1407.53 1107.44Z" fill-rule="evenodd" clip-rule="evenodd"/></clipPath></defs><g transform="translate(-925 -366)"><g><rect x="1251.5" y="640.5" width="1884" height="1077" stroke="#12B981" stroke-width="25.2083" stroke-linecap="butt" stroke-linejoin="miter" stroke-miterlimit="8" stroke-opacity="1" fill="#FFFFFF" fill-opacity="1"/><text fill="#12B981" fill-opacity="1" font-family="Tahoma,Tahoma_MSFontService,sans-serif" font-style="normal" font-variant="normal" font-weight="700" font-stretch="normal" font-size="147" text-anchor="start" direction="ltr" writing-mode="lr-tb" unicode-bidi="normal" text-decoration="none" transform="matrix(1 0 0 1 1346.07 1628)">SHINSEI TECHNOLOGY</text><text fill="#12B981" fill-opacity="1" font-family="YuKyokasho Yoko,YuKyokasho Yoko_MSFontService,sans-serif" font-style="normal" font-variant="normal" font-weight="700" font-stretch="normal" font-size="761" text-anchor="start" direction="ltr" writing-mode="lr-tb" unicode-bidi="normal" text-decoration="none" transform="matrix(1 0 0 1 1387.3 1403)">新世</text><path d="M1375.03 719.679 1742.03 671.808 1786.96 1016.33 1419.96 1064.2Z" fill="#FFFFFF" fill-rule="nonzero" fill-opacity="1"/><g clip-path="url(#clip0)"><g clip-path="url(#clip1)"><g clip-path="url(#clip2)"><path d="M183.442 211.532C184.321 209.735 185.276 207.977 186.232 206.258L180.652 206.258C181.608 207.977 182.563 209.735 183.442 211.532Z" fill="#12B981" fill-rule="nonzero" fill-opacity="1" transform="matrix(1.24685 -0.218854 0.172882 0.984943 1344.1 746.078)"/><path d="M217.264 114.651C216.825 112.598 214.811 111.284 212.754 111.709 209.468 112.396 206.028 113.008 202.512 113.466 200.402 113.604 198.802 115.426 198.939 117.537 199.076 119.647 200.898 121.247 203.009 121.11L203.506 121.11C207.328 120.613 210.882 120.002 214.321 119.237 216.387 118.804 217.71 116.778 217.277 114.713 217.273 114.692 217.269 114.671 217.264 114.651Z" fill="#12B981" fill-rule="nonzero" fill-opacity="1" transform="matrix(1.24685 -0.218854 0.172882 0.984943 1344.1 746.078)"/><path d="M217.264 129.938C216.825 127.885 214.811 126.571 212.754 126.995 209.468 127.683 206.028 128.295 202.512 128.753 200.402 128.891 198.802 130.713 198.939 132.823 199.076 134.934 200.898 136.534 203.009 136.397L203.506 136.397C207.328 135.9 210.882 135.288 214.321 134.524 216.387 134.091 217.71 132.065 217.277 130 217.273 129.979 217.269 129.958 217.264 129.938Z" fill="#12B981" fill-rule="nonzero" fill-opacity="1" transform="matrix(1.24685 -0.218854 0.172882 0.984943 1344.1 746.078)"/><path d="M217.264 145.225C216.825 143.172 214.811 141.858 212.754 142.282 209.468 142.97 206.028 143.582 202.512 144.04 200.402 144.177 198.802 146 198.939 148.11 199.076 150.221 200.898 151.821 203.009 151.684L203.506 151.684C207.328 151.187 210.882 150.575 214.321 149.811 216.387 149.378 217.71 147.352 217.277 145.286 217.273 145.266 217.269 145.245 217.264 145.225Z" fill="#12B981" fill-rule="nonzero" fill-opacity="1" transform="matrix(1.24685 -0.218854 0.172882 0.984943 1344.1 746.078)"/><path d="M217.264 99.3644C216.825 97.3114 214.811 95.9971 212.754 96.4217 209.468 97.1096 206.028 97.7211 202.512 98.1797 200.402 98.3169 198.802 100.139 198.939 102.25 199.076 104.361 200.898 105.96 203.009 105.823L203.506 105.823C207.328 105.326 210.882 104.715 214.321 103.95 216.387 103.517 217.71 101.492 217.277 99.4259 217.273 99.4053 217.269 99.3847 217.264 99.3644Z" fill="#12B981" fill-rule="nonzero" fill-opacity="1" transform="matrix(1.24685 -0.218854 0.172882 0.984943 1344.1 746.078)"/><path d="M199.226 178.856C199.483 180.685 201.011 182.068 202.856 182.143 205.531 179.009 208.359 175.951 211.302 173.085 208.474 173.658 205.531 174.155 202.512 174.576 200.424 174.853 198.955 176.767 199.226 178.856Z" fill="#12B981" fill-rule="nonzero" fill-opacity="1" transform="matrix(1.24685 -0.218854 0.172882 0.984943 1344.1 746.078)"/><path d="M191.315 197.62C191.659 197.047 192.041 196.512 192.423 195.939 192.58 195.524 192.658 195.083 192.652 194.64 192.652 192.529 190.941 190.818 188.831 190.818 185.391 190.818 181.837 190.818 178.397 190.818 176.287 190.818 174.576 192.529 174.576 194.64 174.584 195.16 174.674 195.676 174.843 196.168L175.722 197.468C176.399 198.16 177.315 198.571 178.283 198.614L183.442 198.729 188.945 198.729C189.841 198.65 190.68 198.257 191.315 197.62Z" fill="#12B981" fill-rule="nonzero" fill-opacity="1" transform="matrix(1.24685 -0.218854 0.172882 0.984943 1344.1 746.078)"/><path d="M217.264 160.512C216.825 158.459 214.811 157.144 212.754 157.569 209.468 158.257 206.028 158.868 202.512 159.327 200.402 159.464 198.802 161.286 198.939 163.397 199.076 165.508 200.898 167.108 203.009 166.97L203.506 166.97C207.328 166.474 210.882 165.862 214.321 165.098 216.387 164.665 217.71 162.639 217.277 160.573 217.273 160.553 217.269 160.532 217.264 160.512Z" fill="#12B981" fill-rule="nonzero" fill-opacity="1" transform="matrix(1.24685 -0.218854 0.172882 0.984943 1344.1 746.078)"/><path d="M164.333 98.1414C160.817 97.6828 157.378 97.1096 154.129 96.3835 152.019 95.9401 149.949 97.2919 149.505 99.4026 149.062 101.513 150.414 103.584 152.524 104.027 155.964 104.753 159.633 105.403 163.34 105.861L163.837 105.861C165.947 105.998 167.77 104.399 167.907 102.288 168.044 100.177 166.444 98.3551 164.333 98.2179Z" fill="#12B981" fill-rule="nonzero" fill-opacity="1" transform="matrix(1.24685 -0.218854 0.172882 0.984943 1344.1 746.078)"/><path d="M164.333 128.715C160.817 128.257 157.378 127.683 154.129 126.957 152.019 126.514 149.949 127.866 149.505 129.976 149.062 132.087 150.414 134.157 152.524 134.601 155.964 135.327 159.633 135.976 163.34 136.435L163.837 136.435C165.947 136.572 167.77 134.972 167.907 132.862 168.044 130.751 166.444 128.929 164.333 128.792Z" fill="#12B981" fill-rule="nonzero" fill-opacity="1" transform="matrix(1.24685 -0.218854 0.172882 0.984943 1344.1 746.078)"/><path d="M164.333 159.289C160.817 158.83 157.378 158.257 154.129 157.531 152.019 157.087 149.949 158.439 149.505 160.55 149.062 162.661 150.414 164.731 152.524 165.174 155.964 165.9 159.633 166.55 163.34 167.009L163.837 167.009C165.947 167.146 167.77 165.546 167.907 163.435 168.044 161.325 166.444 159.502 164.333 159.365Z" fill="#12B981" fill-rule="nonzero" fill-opacity="1" transform="matrix(1.24685 -0.218854 0.172882 0.984943 1344.1 746.078)"/><path d="M164.333 144.002C160.817 143.543 157.378 142.97 154.129 142.244 152.019 141.801 149.949 143.152 149.505 145.263 149.062 147.374 150.414 149.444 152.524 149.887 155.964 150.613 159.633 151.263 163.34 151.722L163.837 151.722C165.947 151.859 167.77 150.259 167.907 148.148 168.044 146.038 166.444 144.216 164.333 144.078Z" fill="#12B981" fill-rule="nonzero" fill-opacity="1" transform="matrix(1.24685 -0.218854 0.172882 0.984943 1344.1 746.078)"/><path d="M164.333 113.428C160.817 112.97 157.378 112.396 154.129 111.67 152.019 111.227 149.949 112.579 149.505 114.689 149.062 116.8 150.414 118.87 152.524 119.314 155.964 120.04 159.633 120.69 163.34 121.148L163.837 121.148C165.947 121.285 167.77 119.686 167.907 117.575 168.044 115.464 166.444 113.642 164.333 113.505Z" fill="#12B981" fill-rule="nonzero" fill-opacity="1" transform="matrix(1.24685 -0.218854 0.172882 0.984943 1344.1 746.078)"/><path d="M143.314 158.677C144.039 156.715 143.051 154.535 141.097 153.786 138.207 152.715 135.397 151.438 132.69 149.964 132.957 147.862 133.301 145.798 133.607 143.696 135.136 144.422 136.741 145.072 138.422 145.722 138.851 145.877 139.304 145.955 139.76 145.951 141.87 145.915 143.552 144.175 143.515 142.064 143.489 140.519 142.535 139.143 141.097 138.575 138.999 137.783 136.945 136.877 134.945 135.862 135.327 133.722 135.785 131.62 136.206 129.518L138.422 130.435C138.851 130.59 139.304 130.668 139.76 130.664 141.87 130.628 143.552 128.888 143.515 126.778 143.489 125.232 142.535 123.856 141.097 123.288 139.989 122.868 138.957 122.409 137.925 121.951 138.46 119.734 139.034 117.518 139.607 115.377 141.192 115.367 142.606 114.378 143.161 112.893 143.771 111.15 143.048 109.219 141.441 108.307 143.755 100.738 146.512 93.3112 149.696 86.0649 150.097 87.3661 151.16 88.3563 152.486 88.6636 155.926 89.3897 159.594 90.0394 163.302 90.498L163.798 90.498C165.909 90.6352 167.731 89.0355 167.868 86.9247 168.006 84.814 166.406 82.9918 164.295 82.8546 160.779 82.396 157.34 81.8228 154.091 81.0966 153.301 80.951 152.486 81.058 151.76 81.4024 152.983 78.8418 154.244 76.3195 155.582 73.7589 158.104 74.2176 160.665 74.6379 163.225 74.9819L163.722 74.9819C165.833 75.1191 167.655 73.5193 167.792 71.4086 167.929 69.2979 166.329 67.4757 164.219 67.3385 162.652 67.1474 161.123 66.8799 159.594 66.6506 161.161 64.1283 162.805 61.797 164.486 59.504 166.315 59.3358 167.661 57.7173 167.493 55.8886 167.486 55.8195 167.478 55.7507 167.467 55.6823 169.302 53.4657 171.289 51.3255 173.085 49.3765 178.868 44.2619 187.557 44.2619 193.34 49.3765 195.289 51.3255 197.162 53.4657 199.035 55.7205 199.016 55.9112 199.016 56.1031 199.035 56.2938 199.265 57.858 200.435 59.1191 201.977 59.4658 203.659 61.7206 205.302 64.09 206.869 66.6124L202.55 67.5678C200.44 67.705 198.84 69.5272 198.977 71.6379 199.114 73.7486 200.937 75.3484 203.047 75.2112L203.544 75.2112C206.143 74.8672 208.703 74.4469 211.188 73.9883 212.525 76.3577 213.786 78.88 215.009 81.4406 214.321 81.1047 213.541 81.0103 212.793 81.1731 209.506 81.861 206.066 82.4725 202.55 82.9311 200.44 83.0683 198.84 84.8904 198.977 87.0012 199.114 89.1119 200.937 90.7117 203.047 90.5745L203.544 90.5745C207.366 90.0776 210.92 89.4662 214.36 88.7018 215.644 88.4037 216.684 87.4651 217.111 86.2177 220.329 93.3853 223.124 100.736 225.481 108.231 223.904 109.167 223.214 111.092 223.837 112.817 224.392 114.302 225.806 115.29 227.392 115.301 228.003 117.479 228.538 119.696 229.073 121.912 228.041 122.333 227.086 122.791 225.978 123.212 223.993 123.932 222.969 126.124 223.688 128.108 224.241 129.631 225.695 130.64 227.315 130.626 227.773 130.618 228.227 130.527 228.653 130.358 229.417 130.091 230.067 129.747 230.793 129.479 231.252 131.594 231.672 133.696 232.054 135.785 230.08 136.801 228.052 137.707 225.978 138.499 223.993 139.219 222.969 141.41 223.688 143.395 224.241 144.918 225.695 145.927 227.315 145.913 227.773 145.904 228.227 145.814 228.653 145.645 230.334 145.034 231.901 144.346 233.392 143.658 233.736 145.722 234.041 147.824 234.309 149.926 231.632 151.408 228.847 152.685 225.978 153.747 224.015 154.523 223.052 156.743 223.828 158.706 224.217 159.689 224.995 160.467 225.978 160.856 233.324 155.503 241.199 150.919 249.481 147.174 243.061 100.97 227.009 61.4148 204.347 38.7903 192.588 27.7722 174.296 27.7722 162.537 38.7903 139.874 61.4148 123.823 100.97 117.594 147.174 125.857 150.947 133.718 155.544 141.059 160.894 142.119 160.554 142.956 159.731 143.314 158.677Z" fill="#12B981" fill-rule="nonzero" fill-opacity="1" transform="matrix(1.24685 -0.218854 0.172882 0.984943 1344.1 746.078)"/><path d="M188.716 175.799C185.276 175.799 181.722 175.799 178.283 175.799 176.172 175.799 174.461 177.51 174.461 179.62 174.461 181.731 176.172 183.442 178.283 183.442L183.442 183.442 188.945 183.442C191.056 183.442 192.767 181.731 192.767 179.62 192.771 177.51 191.063 175.795 188.952 175.792 188.873 175.792 188.795 175.794 188.716 175.799Z" fill="#12B981" fill-rule="nonzero" fill-opacity="1" transform="matrix(1.24685 -0.218854 0.172882 0.984943 1344.1 746.078)"/><path d="M155.544 173.085C158.486 175.99 161.314 179.009 164.028 182.181 166.138 182.297 167.943 180.68 168.06 178.569 168.176 176.459 166.559 174.654 164.448 174.537 161.391 174.193 158.41 173.658 155.544 173.085Z" fill="#12B981" fill-rule="nonzero" fill-opacity="1" transform="matrix(1.24685 -0.218854 0.172882 0.984943 1344.1 746.078)"/><path d="M188.716 160.512C185.276 160.512 181.722 160.512 178.283 160.512 176.172 160.438 174.401 162.089 174.327 164.2 174.253 166.31 175.904 168.081 178.015 168.155L183.442 168.155 188.945 168.155C191.056 168.092 192.716 166.329 192.652 164.219 192.589 162.108 190.827 160.448 188.716 160.512Z" fill="#12B981" fill-rule="nonzero" fill-opacity="1" transform="matrix(1.24685 -0.218854 0.172882 0.984943 1344.1 746.078)"/><path d="M188.716 84.0776C185.276 84.0776 181.722 84.0776 178.283 84.0776 176.172 84.0038 174.401 85.6548 174.327 87.7655 174.253 89.8762 175.904 91.6472 178.015 91.721L183.442 91.721 188.945 91.721C191.056 91.6575 192.716 89.8954 192.652 87.7846 192.589 85.6739 190.827 84.0141 188.716 84.0776Z" fill="#12B981" fill-rule="nonzero" fill-opacity="1" transform="matrix(1.24685 -0.218854 0.172882 0.984943 1344.1 746.078)"/><path d="M188.716 68.7907C185.276 68.7907 181.722 68.7907 178.283 68.7907 176.172 68.717 174.401 70.368 174.327 72.4787 174.253 74.5894 175.904 76.3604 178.015 76.4342L183.442 76.4342 188.945 76.4342C191.056 76.4342 192.767 74.7232 192.767 72.6124 192.771 70.5017 191.063 68.7877 188.952 68.7839 188.873 68.7839 188.795 68.7861 188.716 68.7907Z" fill="#12B981" fill-rule="nonzero" fill-opacity="1" transform="matrix(1.24685 -0.218854 0.172882 0.984943 1344.1 746.078)"/><path d="M188.831 53.5039 188.831 53.5039C185.391 53.5039 181.837 53.5039 178.397 53.5039 176.287 53.5039 174.576 55.2149 174.576 57.3256 174.576 59.4363 176.287 61.1473 178.397 61.1473L183.442 61.1473 188.945 61.1473C191.056 61.1473 192.767 59.4363 192.767 57.3256 192.768 55.2149 191.057 53.5031 188.947 53.502 188.908 53.502 188.869 53.5028 188.831 53.5039Z" fill="#12B981" fill-rule="nonzero" fill-opacity="1" transform="matrix(1.24685 -0.218854 0.172882 0.984943 1344.1 746.078)"/><path d="M188.716 99.3644C185.276 99.3644 181.722 99.3644 178.283 99.3644 176.172 99.3644 174.461 101.075 174.461 103.186 174.461 105.297 176.172 107.008 178.283 107.008L183.442 107.008 188.945 107.008C191.056 107.008 192.767 105.297 192.767 103.186 192.771 101.075 191.063 99.3613 188.952 99.3575 188.873 99.3575 188.795 99.3598 188.716 99.3644Z" fill="#12B981" fill-rule="nonzero" fill-opacity="1" transform="matrix(1.24685 -0.218854 0.172882 0.984943 1344.1 746.078)"/><path d="M188.716 114.651C185.276 114.651 181.722 114.651 178.283 114.651 176.172 114.577 174.401 116.228 174.327 118.339 174.253 120.45 175.904 122.221 178.015 122.295L183.442 122.295 188.945 122.295C191.056 122.231 192.716 120.469 192.652 118.358 192.589 116.248 190.827 114.588 188.716 114.651Z" fill="#12B981" fill-rule="nonzero" fill-opacity="1" transform="matrix(1.24685 -0.218854 0.172882 0.984943 1344.1 746.078)"/><path d="M188.716 145.225C185.276 145.225 181.722 145.225 178.283 145.225 176.172 145.151 174.401 146.802 174.327 148.913 174.253 151.024 175.904 152.795 178.015 152.868L183.442 152.868 188.945 152.868C191.056 152.868 192.767 151.157 192.767 149.047 192.771 146.936 191.063 145.222 188.952 145.218 188.873 145.218 188.795 145.22 188.716 145.225Z" fill="#12B981" fill-rule="nonzero" fill-opacity="1" transform="matrix(1.24685 -0.218854 0.172882 0.984943 1344.1 746.078)"/><path d="M188.716 129.938C185.276 129.938 181.722 129.938 178.283 129.938 176.172 129.864 174.401 131.515 174.327 133.626 174.253 135.737 175.904 137.508 178.015 137.581L183.442 137.581 188.945 137.581C191.056 137.518 192.716 135.756 192.652 133.645 192.589 131.534 190.827 129.875 188.716 129.938Z" fill="#12B981" fill-rule="nonzero" fill-opacity="1" transform="matrix(1.24685 -0.218854 0.172882 0.984943 1344.1 746.078)"/><path d="M280.666 152.868C227.736 164.333 190.474 206.64 183.442 265.227 176.372 206.869 139.034 164.333 86.2177 152.868 65.3512 148.053 44.4847 148.053 30.5737 161.964 30.5737 161.964 90.8802 163.875 90.8802 234.997 90.8802 276.157 117.632 303.367 146.524 308.03 149.918 308.625 153.359 308.919 156.805 308.909L159.442 308.909C160.739 322.163 172.536 331.857 185.791 330.56 197.252 329.438 206.321 320.37 207.442 308.909L210.194 308.909C213.64 308.919 217.08 308.625 220.474 308.03 249.558 303.367 276.118 276.157 276.118 234.997 276.004 163.875 336.31 161.964 336.31 161.964 322.399 148.053 301.533 148.053 280.666 152.868Z" fill="#12B981" fill-rule="nonzero" fill-opacity="1" transform="matrix(1.24685 -0.218854 0.172882 0.984943 1344.1 746.078)"/></g></g></g><rect x="2421" y="763" width="503" height="527" fill="#FFFFFF" fill-opacity="1"/><rect x="2395" y="1012" width="134" height="79.0001" fill="#FFFFFF" fill-opacity="1"/><rect x="2166" y="1044" width="162" height="88" fill="#FFFFFF" fill-opacity="1"/><path d="M2613.38 1085.32 2150.46 1107.58 2143.6 1047.37 2599.65 964.895Z" fill="#12B981" fill-rule="evenodd" fill-opacity="1"/><path d="M0 344.464 30.3018 0 90.905 0 121.207 344.464Z" fill="#12B981" fill-rule="evenodd" fill-opacity="1" transform="matrix(-0.113242 -0.993567 -0.993567 0.113242 3025.52 1038.35)"/><path d="M2597.45 1028.46 2168.23 1072.35 2167.1 1062.41 2595.19 1008.59Z" fill="#FFFFFF" fill-rule="evenodd" fill-opacity="1"/><path d="M0 317.052 4.99853 0 14.9953 0 19.9934 317.052Z" fill="#FFFFFF" fill-rule="evenodd" fill-opacity="1" transform="matrix(-0.113242 -0.993567 -0.993567 0.113242 3001.99 982.347)"/><path d="M2694.47 1245.91 2761.48 1250.68 2763.27 1278.71 2696.71 1280.95 2696.69 1280.66 2686.6 1281.81 2693.84 1247.43 2694.68 1249.23Z" fill="#12B981" fill-rule="evenodd" fill-opacity="1"/><path d="M11.8814 0 77.9224 12.326 76.5316 40.3763 10.143 35.0629 10.1572 34.777 0 34.777 11.0894 1.43276 11.7169 3.31933Z" fill="#12B981" fill-rule="evenodd" fill-opacity="1" transform="matrix(-0.993567 0.113242 0.113242 0.993567 2652.43 1250.7)"/><path d="M2616.69 1147.49 2616.69 1147.49 2632.42 1146.86 2645.14 1219.14 2641.28 1219.29 2641.39 1219.59 2541.24 1231.53 2541.05 1230.96 2524.81 1231.6 2529.65 1202.22 2533.87 1209.89 2532.2 1204.97 2530.18 1200.34Z" fill="#12B981" fill-rule="evenodd" fill-opacity="1"/><path d="M79.0632 117.938 79.0631 117.938 73.2033 132.618 0 115.398 1.4364 111.799 1.10797 111.773 30.918 15.1111 31.5369 15.1609 37.5885 0 63.2458 16.1881 54.2971 16.9956 59.6093 17.4239 64.7977 17.4239Z" fill="#12B981" fill-rule="evenodd" fill-opacity="1" transform="matrix(0.164909 -0.986309 -0.986309 -0.164909 2796.39 1235.6)"/><path d="M2611.72 763.212 2640.93 798.025 2641.5 797.96 2641.6 798.824 2679.21 1128.86 2668.38 1130.09 2678.81 1221.6 2687.22 1243.09 2681.44 1282.4 2661.19 1284.71 2646.71 1247.71 2649.74 1227.08 2639.07 1133.43 2628.24 1134.67 2590.62 804.634 2590.52 803.77 2591.09 803.705Z" fill="#12B981" fill-rule="evenodd" fill-opacity="1"/><rect x="2334.5" y="1027.5" width="56" height="44" stroke="#12B981" stroke-width="4.58333" stroke-linecap="butt" stroke-linejoin="miter" stroke-miterlimit="8" stroke-opacity="1" fill="#12B981" fill-opacity="1"/></g></g></svg>